<svg width="304" height="127" viewBox="0 0 304 127" fill="none" xmlns="http://www.w3.org/2000/svg">
<g filter="url(#filter0_i_198_193)">
<path fill-rule="evenodd" clip-rule="evenodd" d="M295.734 82.0972C284.385 89.4815 243.782 84.2378 219.887 87.0277C204.971 88.7693 197.168 93.2717 182.78 95.2854C162.285 98.1539 144.79 103.854 118 101.288C89.9173 98.5973 61.5014 90.4273 40.9231 81.6947C20.3105 72.9476 2.34494 61.9413 5.30617 53.4654C8.22613 45.1077 42.9874 45.764 55.6419 39.5655C65.6513 34.6627 56.931 25.3528 70.3967 21.5824C85.1148 17.4613 108.111 16.8061 131.7 18.2695C156.875 19.8312 183.111 23.9989 207.033 30.0586C232.503 36.5108 255.719 44.5123 271.238 53.6169C287.444 63.1245 306.454 75.1225 295.734 82.0972Z" fill="url(#paint0_linear_198_193)"/>
</g>
<path d="M60.872 59.1199C60.44 58.2879 59.84 57.6639 59.072 57.2479C58.304 56.8159 57.416 56.5999 56.408 56.5999C55.304 56.5999 54.32 56.8479 53.456 57.3439C52.592 57.8399 51.912 58.5439 51.416 59.4559C50.936 60.3679 50.696 61.4239 50.696 62.6239C50.696 63.8239 50.936 64.8879 51.416 65.8159C51.912 66.7279 52.592 67.4319 53.456 67.9279C54.32 68.4239 55.304 68.6719 56.408 68.6719C57.896 68.6719 59.104 68.2559 60.032 67.4239C60.96 66.5919 61.528 65.4639 61.736 64.0399H55.472V61.8559H64.664V63.9919C64.488 65.2879 64.024 66.4799 63.272 67.5679C62.536 68.6559 61.568 69.5279 60.368 70.1839C59.184 70.8239 57.864 71.1439 56.408 71.1439C54.84 71.1439 53.408 70.7839 52.112 70.0639C50.816 69.3279 49.784 68.3119 49.016 67.0159C48.264 65.7199 47.888 64.2559 47.888 62.6239C47.888 60.9919 48.264 59.5279 49.016 58.2319C49.784 56.9359 50.816 55.9279 52.112 55.2079C53.424 54.4719 54.856 54.1039 56.408 54.1039C58.184 54.1039 59.76 54.5439 61.136 55.4239C62.528 56.2879 63.536 57.5199 64.16 59.1199H60.872ZM79.4825 64.0639C79.4825 64.5599 79.4505 65.0079 79.3865 65.4079H69.2825C69.3625 66.4639 69.7545 67.3119 70.4585 67.9519C71.1625 68.5919 72.0265 68.9119 73.0505 68.9119C74.5225 68.9119 75.5625 68.2959 76.1705 67.0639H79.1225C78.7225 68.2799 77.9945 69.2799 76.9385 70.0639C75.8985 70.8319 74.6025 71.2159 73.0505 71.2159C71.7865 71.2159 70.6505 70.9359 69.6425 70.3759C68.6505 69.7999 67.8665 68.9999 67.2905 67.9759C66.7305 66.9359 66.4505 65.7359 66.4505 64.3759C66.4505 63.0159 66.7225 61.8239 67.2665 60.7999C67.8265 59.7599 68.6025 58.9599 69.5945 58.3999C70.6025 57.8399 71.7545 57.5599 73.0505 57.5599C74.2985 57.5599 75.4105 57.8319 76.3865 58.3759C77.3625 58.9199 78.1225 59.6879 78.6665 60.6799C79.2105 61.6559 79.4825 62.7839 79.4825 64.0639ZM76.6265 63.1999C76.6105 62.1919 76.2505 61.3839 75.5465 60.7759C74.8425 60.1679 73.9705 59.8639 72.9305 59.8639C71.9865 59.8639 71.1785 60.1679 70.5065 60.7759C69.8345 61.3679 69.4345 62.1759 69.3065 63.1999H76.6265ZM85.367 60.0079V67.3279C85.367 67.8239 85.479 68.1839 85.703 68.4079C85.943 68.6159 86.343 68.7199 86.903 68.7199H88.583V70.9999H86.423C85.191 70.9999 84.247 70.7119 83.591 70.1359C82.935 69.5599 82.607 68.6239 82.607 67.3279V60.0079H81.047V57.7759H82.607V54.4879H85.367V57.7759H88.583V60.0079H85.367ZM102.139 71.2159C101.099 71.2159 100.163 71.0319 99.3311 70.6639C98.5151 70.2799 97.8671 69.7679 97.3871 69.1279C96.9071 68.4719 96.6511 67.7439 96.6191 66.9439H99.4511C99.4991 67.5039 99.7631 67.9759 100.243 68.3599C100.739 68.7279 101.355 68.9119 102.091 68.9119C102.859 68.9119 103.451 68.7679 103.867 68.4799C104.299 68.1759 104.515 67.7919 104.515 67.3279C104.515 66.8319 104.275 66.4639 103.795 66.2239C103.331 65.9839 102.587 65.7199 101.563 65.4319C100.571 65.1599 99.7631 64.8959 99.1391 64.6399C98.5151 64.3839 97.9711 63.9919 97.5071 63.4639C97.0591 62.9359 96.8351 62.2399 96.8351 61.3759C96.8351 60.6719 97.0431 60.0319 97.4591 59.4559C97.8751 58.8639 98.4671 58.3999 99.2351 58.0639C100.019 57.7279 100.915 57.5599 101.923 57.5599C103.427 57.5599 104.635 57.9439 105.547 58.7119C106.475 59.4639 106.971 60.4959 107.035 61.8079H104.299C104.251 61.2159 104.011 60.7439 103.579 60.3919C103.147 60.0399 102.563 59.8639 101.827 59.8639C101.107 59.8639 100.555 59.9999 100.171 60.2719C99.7871 60.5439 99.5951 60.9039 99.5951 61.3519C99.5951 61.7039 99.7231 61.9999 99.9791 62.2399C100.235 62.4799 100.547 62.6719 100.915 62.8159C101.283 62.9439 101.827 63.1119 102.547 63.3199C103.507 63.5759 104.291 63.8399 104.899 64.1119C105.523 64.3679 106.059 64.7519 106.507 65.2639C106.955 65.7759 107.187 66.4559 107.203 67.3039C107.203 68.0559 106.995 68.7279 106.579 69.3199C106.163 69.9119 105.571 70.3759 104.803 70.7119C104.051 71.0479 103.163 71.2159 102.139 71.2159ZM113.351 60.0079V67.3279C113.351 67.8239 113.463 68.1839 113.687 68.4079C113.927 68.6159 114.327 68.7199 114.887 68.7199H116.567V70.9999H114.407C113.175 70.9999 112.231 70.7119 111.575 70.1359C110.919 69.5599 110.591 68.6239 110.591 67.3279V60.0079H109.031V57.7759H110.591V54.4879H113.351V57.7759H116.567V60.0079H113.351ZM118.177 64.3279C118.177 62.9999 118.449 61.8239 118.993 60.7999C119.553 59.7759 120.305 58.9839 121.249 58.4239C122.209 57.8479 123.265 57.5599 124.417 57.5599C125.457 57.5599 126.361 57.7679 127.129 58.1839C127.913 58.5839 128.537 59.0879 129.001 59.6959V57.7759H131.761V70.9999H129.001V69.0319C128.537 69.6559 127.905 70.1759 127.105 70.5919C126.305 71.0079 125.393 71.2159 124.369 71.2159C123.233 71.2159 122.193 70.9279 121.249 70.3519C120.305 69.7599 119.553 68.9439 118.993 67.9039C118.449 66.8479 118.177 65.6559 118.177 64.3279ZM129.001 64.3759C129.001 63.4639 128.809 62.6719 128.425 61.9999C128.057 61.3279 127.569 60.8159 126.961 60.4639C126.353 60.1119 125.697 59.9359 124.993 59.9359C124.289 59.9359 123.633 60.1119 123.025 60.4639C122.417 60.7999 121.921 61.3039 121.537 61.9759C121.169 62.6319 120.985 63.4159 120.985 64.3279C120.985 65.2399 121.169 66.0399 121.537 66.7279C121.921 67.4159 122.417 67.9439 123.025 68.3119C123.649 68.6639 124.305 68.8399 124.993 68.8399C125.697 68.8399 126.353 68.6639 126.961 68.3119C127.569 67.9599 128.057 67.4479 128.425 66.7759C128.809 66.0879 129.001 65.2879 129.001 64.3759ZM138.091 59.6959C138.491 59.0239 139.019 58.5039 139.675 58.1359C140.347 57.7519 141.139 57.5599 142.051 57.5599V60.3919H141.355C140.283 60.3919 139.467 60.6639 138.907 61.2079C138.363 61.7519 138.091 62.6959 138.091 64.0399V70.9999H135.355V57.7759H138.091V59.6959ZM147.758 60.0079V67.3279C147.758 67.8239 147.87 68.1839 148.094 68.4079C148.334 68.6159 148.734 68.7199 149.294 68.7199H150.974V70.9999H148.814C147.582 70.9999 146.638 70.7119 145.982 70.1359C145.326 69.5599 144.998 68.6239 144.998 67.3279V60.0079H143.438V57.7759H144.998V54.4879H147.758V57.7759H150.974V60.0079H147.758ZM165.615 64.0639C165.615 64.5599 165.583 65.0079 165.519 65.4079H155.415C155.495 66.4639 155.887 67.3119 156.591 67.9519C157.295 68.5919 158.159 68.9119 159.183 68.9119C160.655 68.9119 161.695 68.2959 162.303 67.0639H165.255C164.855 68.2799 164.127 69.2799 163.071 70.0639C162.031 70.8319 160.735 71.2159 159.183 71.2159C157.919 71.2159 156.783 70.9359 155.775 70.3759C154.783 69.7999 153.999 68.9999 153.423 67.9759C152.863 66.9359 152.583 65.7359 152.583 64.3759C152.583 63.0159 152.855 61.8239 153.399 60.7999C153.959 59.7599 154.735 58.9599 155.727 58.3999C156.735 57.8399 157.887 57.5599 159.183 57.5599C160.431 57.5599 161.543 57.8319 162.519 58.3759C163.495 58.9199 164.255 59.6879 164.799 60.6799C165.343 61.6559 165.615 62.7839 165.615 64.0639ZM162.759 63.1999C162.743 62.1919 162.383 61.3839 161.679 60.7759C160.975 60.1679 160.103 59.8639 159.063 59.8639C158.119 59.8639 157.311 60.1679 156.639 60.7759C155.967 61.3679 155.567 62.1759 155.439 63.1999H162.759ZM167.396 64.3279C167.396 62.9999 167.668 61.8239 168.212 60.7999C168.772 59.7759 169.524 58.9839 170.468 58.4239C171.428 57.8479 172.492 57.5599 173.66 57.5599C174.524 57.5599 175.372 57.7519 176.204 58.1359C177.052 58.5039 177.724 58.9999 178.22 59.6239V53.2399H180.98V70.9999H178.22V69.0079C177.772 69.6479 177.148 70.1759 176.348 70.5919C175.564 71.0079 174.66 71.2159 173.636 71.2159C172.484 71.2159 171.428 70.9279 170.468 70.3519C169.524 69.7599 168.772 68.9439 168.212 67.9039C167.668 66.8479 167.396 65.6559 167.396 64.3279ZM178.22 64.3759C178.22 63.4639 178.028 62.6719 177.644 61.9999C177.276 61.3279 176.788 60.8159 176.18 60.4639C175.572 60.1119 174.916 59.9359 174.212 59.9359C173.508 59.9359 172.852 60.1119 172.244 60.4639C171.636 60.7999 171.14 61.3039 170.756 61.9759C170.388 62.6319 170.204 63.4159 170.204 64.3279C170.204 65.2399 170.388 66.0399 170.756 66.7279C171.14 67.4159 171.636 67.9439 172.244 68.3119C172.868 68.6639 173.524 68.8399 174.212 68.8399C174.916 68.8399 175.572 68.6639 176.18 68.3119C176.788 67.9599 177.276 67.4479 177.644 66.7759C178.028 66.0879 178.22 65.2879 178.22 64.3759ZM194 60.0079V67.3279C194 67.8239 194.112 68.1839 194.336 68.4079C194.576 68.6159 194.976 68.7199 195.536 68.7199H197.216V70.9999H195.056C193.824 70.9999 192.88 70.7119 192.224 70.1359C191.568 69.5599 191.24 68.6239 191.24 67.3279V60.0079H189.68V57.7759H191.24V54.4879H194V57.7759H197.216V60.0079H194ZM205.474 71.2159C204.226 71.2159 203.098 70.9359 202.09 70.3759C201.082 69.7999 200.29 68.9999 199.714 67.9759C199.138 66.9359 198.85 65.7359 198.85 64.3759C198.85 63.0319 199.146 61.8399 199.738 60.7999C200.33 59.7599 201.138 58.9599 202.162 58.3999C203.186 57.8399 204.33 57.5599 205.594 57.5599C206.858 57.5599 208.002 57.8399 209.026 58.3999C210.05 58.9599 210.858 59.7599 211.45 60.7999C212.042 61.8399 212.338 63.0319 212.338 64.3759C212.338 65.7199 212.034 66.9119 211.426 67.9519C210.818 68.9919 209.986 69.7999 208.93 70.3759C207.89 70.9359 206.738 71.2159 205.474 71.2159ZM205.474 68.8399C206.178 68.8399 206.834 68.6719 207.442 68.3359C208.066 67.9999 208.57 67.4959 208.954 66.8239C209.338 66.1519 209.53 65.3359 209.53 64.3759C209.53 63.4159 209.346 62.6079 208.978 61.9519C208.61 61.2799 208.122 60.7759 207.514 60.4399C206.906 60.1039 206.25 59.9359 205.546 59.9359C204.842 59.9359 204.186 60.1039 203.578 60.4399C202.986 60.7759 202.514 61.2799 202.162 61.9519C201.81 62.6079 201.634 63.4159 201.634 64.3759C201.634 65.7999 201.994 66.9039 202.714 67.6879C203.45 68.4559 204.37 68.8399 205.474 68.8399ZM214.13 64.3279C214.13 62.9999 214.402 61.8239 214.946 60.7999C215.506 59.7759 216.258 58.9839 217.202 58.4239C218.162 57.8479 219.226 57.5599 220.394 57.5599C221.258 57.5599 222.106 57.7519 222.938 58.1359C223.786 58.5039 224.458 58.9999 224.954 59.6239V53.2399H227.714V70.9999H224.954V69.0079C224.506 69.6479 223.882 70.1759 223.082 70.5919C222.298 71.0079 221.394 71.2159 220.37 71.2159C219.218 71.2159 218.162 70.9279 217.202 70.3519C216.258 69.7599 215.506 68.9439 214.946 67.9039C214.402 66.8479 214.13 65.6559 214.13 64.3279ZM224.954 64.3759C224.954 63.4639 224.762 62.6719 224.378 61.9999C224.01 61.3279 223.522 60.8159 222.914 60.4639C222.306 60.1119 221.65 59.9359 220.946 59.9359C220.242 59.9359 219.586 60.1119 218.978 60.4639C218.37 60.7999 217.874 61.3039 217.49 61.9759C217.122 62.6319 216.938 63.4159 216.938 64.3279C216.938 65.2399 217.122 66.0399 217.49 66.7279C217.874 67.4159 218.37 67.9439 218.978 68.3119C219.602 68.6639 220.258 68.8399 220.946 68.8399C221.65 68.8399 222.306 68.6639 222.914 68.3119C223.522 67.9599 224.01 67.4479 224.378 66.7759C224.762 66.0879 224.954 65.2879 224.954 64.3759ZM230.396 64.3279C230.396 62.9999 230.668 61.8239 231.212 60.7999C231.772 59.7759 232.524 58.9839 233.468 58.4239C234.428 57.8479 235.484 57.5599 236.636 57.5599C237.676 57.5599 238.58 57.7679 239.348 58.1839C240.132 58.5839 240.756 59.0879 241.22 59.6959V57.7759H243.98V70.9999H241.22V69.0319C240.756 69.6559 240.124 70.1759 239.324 70.5919C238.524 71.0079 237.612 71.2159 236.588 71.2159C235.452 71.2159 234.412 70.9279 233.468 70.3519C232.524 69.7599 231.772 68.9439 231.212 67.9039C230.668 66.8479 230.396 65.6559 230.396 64.3279ZM241.22 64.3759C241.22 63.4639 241.028 62.6719 240.644 61.9999C240.276 61.3279 239.788 60.8159 239.18 60.4639C238.572 60.1119 237.916 59.9359 237.212 59.9359C236.508 59.9359 235.852 60.1119 235.244 60.4639C234.636 60.7999 234.14 61.3039 233.756 61.9759C233.388 62.6319 233.204 63.4159 233.204 64.3279C233.204 65.2399 233.388 66.0399 233.756 66.7279C234.14 67.4159 234.636 67.9439 235.244 68.3119C235.868 68.6639 236.524 68.8399 237.212 68.8399C237.916 68.8399 238.572 68.6639 239.18 68.3119C239.788 67.9599 240.276 67.4479 240.644 66.7759C241.028 66.0879 241.22 65.2879 241.22 64.3759ZM259.477 57.7759L251.365 77.2159H248.533L251.221 70.7839L246.013 57.7759H249.061L252.781 67.8559L256.645 57.7759H259.477Z" fill="white"/>
<g filter="url(#filter1_f_198_193)">
<ellipse cx="158" cy="107.5" rx="99" ry="1.5" transform="rotate(-2.66422 158 107.5)" fill="#262626"/>
</g>
<defs>
<filter id="filter0_i_198_193" x="4.98486" y="13.5593" width="293.875" height="88.3759" filterUnits="userSpaceOnUse" color-interpolation-filters="sRGB">
<feFlood flood-opacity="0" result="BackgroundImageFix"/>
<feBlend mode="normal" in="SourceGraphic" in2="BackgroundImageFix" result="shape"/>
<feColorMatrix in="SourceAlpha" type="matrix" values="0 0 0 0 0 0 0 0 0 0 0 0 0 0 0 0 0 0 127 0" result="hardAlpha"/>
<feOffset dy="-4"/>
<feGaussianBlur stdDeviation="3.65"/>
<feComposite in2="hardAlpha" operator="arithmetic" k2="-1" k3="1"/>
<feColorMatrix type="matrix" values="0 0 0 0 0 0 0 0 0 0 0 0 0 0 0 0 0 0 0.25 0"/>
<feBlend mode="normal" in2="shape" result="effect1_innerShadow_198_193"/>
</filter>
<filter id="filter1_f_198_193" x="46.2069" y="89.7592" width="223.586" height="35.4818" filterUnits="userSpaceOnUse" color-interpolation-filters="sRGB">
<feFlood flood-opacity="0" result="BackgroundImageFix"/>
<feBlend mode="normal" in="SourceGraphic" in2="BackgroundImageFix" result="shape"/>
<feGaussianBlur stdDeviation="6.45" result="effect1_foregroundBlur_198_193"/>
</filter>
<linearGradient id="paint0_linear_198_193" x1="158.4" y1="20.8042" x2="146.329" y2="105.566" gradientUnits="userSpaceOnUse">
<stop stop-color="#151515"/>
<stop offset="1" stop-color="#E53F34"/>
</linearGradient>
</defs>
</svg>
